<svg width="315" height="19" viewBox="0 0 315 19" fill="none" xmlns="http://www.w3.org/2000/svg">
<g clip-path="url(#clip0_1_464)">
<path fill-rule="evenodd" clip-rule="evenodd" d="M10.125 14.0083L4.35732 17.7876L6.1694 11.1344L0.792725 6.81689L7.68029 6.48431L10.125 0.0366211L12.5696 6.48431L19.4572 6.81689L14.0805 11.1344L15.8926 17.7876L10.125 14.0083Z" fill="#FFC54F"/>
</g>
<g clip-path="url(#clip1_1_464)">
<path fill-rule="evenodd" clip-rule="evenodd" d="M34.75 14.0083L28.9823 17.7876L30.7944 11.1344L25.4177 6.81689L32.3053 6.48431L34.75 0.0366211L37.1946 6.48431L44.0822 6.81689L38.7055 11.1344L40.5176 17.7876L34.75 14.0083Z" fill="#FFC54F"/>
</g>
<g clip-path="url(#clip2_1_464)">
<path fill-rule="evenodd" clip-rule="evenodd" d="M59.375 14.0083L53.6073 17.7876L55.4194 11.1344L50.0427 6.81689L56.9303 6.48431L59.375 0.0366211L61.8196 6.48431L68.7072 6.81689L63.3305 11.1344L65.1426 17.7876L59.375 14.0083Z" fill="#FFC54F"/>
</g>
<g clip-path="url(#clip3_1_464)">
<path fill-rule="evenodd" clip-rule="evenodd" d="M84 14.0083L78.2323 17.7876L80.0444 11.1344L74.6677 6.81689L81.5553 6.48431L84 0.0366211L86.4446 6.48431L93.3322 6.81689L87.9555 11.1344L89.7676 17.7876L84 14.0083Z" fill="#FFC54F"/>
</g>
<g clip-path="url(#clip4_1_464)">
<path fill-rule="evenodd" clip-rule="evenodd" d="M108.625 14.0083L102.857 17.7876L104.669 11.1344L99.2927 6.81689L106.18 6.48431L108.625 0.0366211L111.07 6.48431L117.957 6.81689L112.581 11.1344L114.393 17.7876L108.625 14.0083Z" fill="#FFC54F"/>
</g>
<defs>
<clipPath id="clip0_1_464">
<rect width="19.625" height="17.9896" fill="white" transform="translate(0.3125 0.0366211)"/>
</clipPath>
<clipPath id="clip1_1_464">
<rect width="19.625" height="17.9896" fill="white" transform="translate(24.9375 0.0366211)"/>
</clipPath>
<clipPath id="clip2_1_464">
<rect width="19.625" height="17.9896" fill="white" transform="translate(49.5625 0.0366211)"/>
</clipPath>
<clipPath id="clip3_1_464">
<rect width="19.625" height="17.9896" fill="white" transform="translate(74.1875 0.0366211)"/>
</clipPath>
<clipPath id="clip4_1_464">
<rect width="19.625" height="17.9896" fill="white" transform="translate(98.8125 0.0366211)"/>
</clipPath>
</defs>
</svg>
